<svg width="162" height="114" viewBox="0 0 162 114" fill="none" xmlns="http://www.w3.org/2000/svg">
<mask id="mask0_126_82" style="mask-type:alpha" maskUnits="userSpaceOnUse" x="0" y="0" width="162" height="114">
<rect width="162" height="114" rx="10" fill="#E88903"/>
</mask>
<g mask="url(#mask0_126_82)">
<path d="M104.388 18.2741C102.899 24.0301 92.185 25.4325 85.4085 25.4933C82.5129 25.5183 80.3367 25.3001 79.9043 25.0747C79.8335 25.039 79.7661 24.9925 79.6952 24.9424L79.6917 24.9388C79.4082 24.7206 79.1282 24.37 78.8801 23.93C78.8801 23.93 78.8801 23.9264 78.8765 23.9264C78.8694 23.9085 78.8588 23.8906 78.8482 23.8763C78.8446 23.8656 78.8375 23.8584 78.8305 23.8441C78.8092 23.8048 78.7879 23.7618 78.7667 23.7225C78.7383 23.6724 78.7135 23.6187 78.6887 23.5651C78.5859 23.3433 78.4902 23.1036 78.4087 22.8496C78.352 22.6743 78.2988 22.4954 78.2598 22.3094C78.2598 22.3058 78.2563 22.2987 78.2563 22.2915C78.2138 22.1055 78.1748 21.9159 78.1535 21.7191C78.1535 21.7156 78.1535 21.712 78.15 21.7084C78.1145 21.458 78.0968 21.2004 78.0933 20.9428C78.0933 20.7568 78.1004 20.5744 78.1216 20.3883C78.1571 20.0091 78.2421 19.6335 78.3733 19.2758C78.4016 19.2007 78.43 19.1255 78.4619 19.054C78.5611 18.825 78.6851 18.6068 78.834 18.3993C79.0289 18.1203 79.2699 17.8627 79.5606 17.6338C79.7413 17.555 79.9327 17.4763 80.1312 17.3976C82.9842 16.2779 87.5669 15.3657 87.5669 15.3657C87.5669 15.3657 83.927 11.9385 78.8411 11.9349H78.8305V4.49395H78.8411L86.532 2.98071C87.8859 3.19178 89.2114 3.4887 90.4802 3.8536H90.4838C91.2493 4.0754 91.9971 4.32582 92.7272 4.5977C93.1065 4.7408 93.4821 4.88747 93.8472 5.04487C99.7483 7.53475 103.984 11.613 104.533 15.7377C104.65 16.5856 104.604 17.437 104.388 18.2741Z" fill="url(#paint0_linear_126_82)"/>
<path opacity="0.45" d="M104.388 18.2741C102.899 24.0301 92.185 25.4325 85.4085 25.4933C82.5129 25.5183 80.3368 25.3001 79.9044 25.0747C79.8335 25.039 79.7662 24.9924 79.6953 24.9424L79.6917 24.9388C79.4082 24.7206 79.1282 24.37 78.8801 23.93C78.8801 23.93 78.8801 23.9264 78.8766 23.9264C78.8695 23.9085 78.8588 23.8906 78.8482 23.8763C78.8447 23.8656 78.8376 23.8584 78.8305 23.8441C78.8092 23.8047 78.788 23.7618 78.7667 23.7225C78.7383 23.6724 78.7135 23.6187 78.6887 23.5651C78.5859 23.3433 78.4902 23.1036 78.4087 22.8496C78.352 22.6743 78.2989 22.4954 78.2599 22.3094C78.2599 22.3058 78.2563 22.2987 78.2563 22.2915C78.2138 22.1055 78.1748 21.9159 78.1535 21.7191C78.1535 21.7155 78.1535 21.712 78.15 21.7084C78.0401 20.8999 78.0862 20.0485 78.3733 19.2722C78.4016 19.1971 78.43 19.1219 78.4619 19.0504C78.5611 18.8214 78.6852 18.6032 78.834 18.3957C79.029 18.1167 79.27 17.8591 79.5606 17.6301C79.7413 17.5514 79.9327 17.4727 80.1312 17.394C80.8117 17.995 82.2967 18.9574 84.7387 18.7964C88.2545 18.5639 87.216 21.1932 90.498 21.8264C93.7834 22.4596 93.2624 19.4367 96.4912 20.4241C99.7164 21.4115 99.6561 18.1596 102.655 18.4458C103.884 18.5674 104.48 17.3404 104.536 15.7341C104.65 16.5856 104.604 17.437 104.388 18.2741Z" fill="url(#paint1_linear_126_82)"/>
<path d="M77.2884 28.9421C77.3273 30.2693 77.2777 31.3926 77.0863 32.0974C77.0119 32.3764 76.9162 32.5875 76.7957 32.7234C76.7532 32.7735 76.7071 32.8093 76.654 32.8343C76.1046 33.1241 75.7289 32.6018 75.7289 32.6018C75.5659 32.6447 75.4347 32.6447 75.3249 32.6161H75.3213C75.2753 32.6054 75.2327 32.5875 75.1973 32.5696C74.9067 32.4194 74.8641 32.0473 74.8641 32.0473C74.3467 32.2512 73.9107 31.6717 73.9107 31.6717C73.9107 31.6717 73.8151 31.7289 73.6591 31.7897C73.6556 31.7933 73.6556 31.7933 73.6556 31.7933C73.6201 31.8041 73.5882 31.8184 73.5492 31.8291C73.5422 31.8327 73.5386 31.8327 73.5386 31.8327C73.1275 31.9579 72.4612 32.0115 72.0146 31.2961C71.7133 30.8131 71.763 29.4859 71.9331 27.9405C71.9898 27.436 72.0607 26.9137 72.1351 26.3879C72.3478 24.846 72.6065 23.2934 72.7057 22.2846C72.9361 19.8734 73.3082 20.3063 74.8677 20.106C75.1937 20.063 75.5623 19.9843 75.938 19.8842C76.8701 19.6409 77.8732 19.2832 78.465 19.0542C78.2949 19.4441 78.1886 19.8555 78.139 20.2741C77.9759 21.562 78.3268 22.9178 78.8513 23.8765C77.4337 24.9784 77.2387 27.2286 77.2884 28.9421Z" fill="url(#paint2_linear_126_82)"/>
<path opacity="0.45" d="M77.2874 28.9425C77.3264 30.2697 77.2768 31.393 77.0854 32.0978C74.6824 30.5309 76.015 29.0498 74.4875 28.3343C73.6333 27.9372 72.7721 27.1037 72.1377 26.3882C72.3503 24.8464 72.6091 23.2938 72.7083 22.285C72.9387 19.8738 73.3108 20.3067 74.8703 20.1063C75.1963 20.0634 75.5649 19.9847 75.9406 19.8845L77.9324 20.0062C77.9324 20.0062 78.0104 20.1063 78.1416 20.2745C77.9785 21.5623 78.3294 22.9182 78.8539 23.8769C77.4327 24.9787 77.2378 27.2289 77.2874 28.9425Z" fill="url(#paint3_linear_126_82)"/>
<g opacity="0.45">
<path opacity="0.45" d="M76.0326 31.0916C75.99 31.3599 75.8128 32.7837 76.7946 32.7228C76.752 32.7729 76.706 32.8087 76.6528 32.8337C76.1035 33.1235 75.7278 32.6012 75.7278 32.6012C75.5647 32.6441 75.4336 32.6441 75.3237 32.6155C75.7136 32.501 75.9794 31.3312 76.0326 31.0916Z" fill="url(#paint4_linear_126_82)"/>
<path opacity="0.45" d="M74.4636 30.2654C74.3324 31.5711 74.3325 31.8967 74.7223 31.8323C75.0519 31.775 75.2575 31.0417 75.3142 30.8235C75.2575 31.1061 75.0236 32.3009 75.2008 32.5692C74.9102 32.419 74.8676 32.0469 74.8676 32.0469C74.3502 32.2508 73.9142 31.6713 73.9142 31.6713C73.9142 31.6713 73.8185 31.7285 73.6626 31.7894C73.8611 31.6963 74.2474 31.3672 74.4636 30.2654Z" fill="url(#paint5_linear_126_82)"/>
<path opacity="0.45" d="M71.9367 27.9404C72.1494 29.3785 72.6314 31.6824 73.5422 31.8327C73.1311 31.9579 72.4648 32.0115 72.0182 31.296C71.7134 30.8095 71.7631 29.4859 71.9367 27.9404Z" fill="url(#paint6_linear_126_82)"/>
</g>
<g opacity="0.25">
<path opacity="0.25" d="M101.251 14.2719C100.776 17.885 93.8647 18.5934 87.1839 19.2802C83.3845 19.6702 79.7588 20.0422 78.1001 20.9473C78.1001 20.7613 78.1072 20.5788 78.1285 20.3928C79.9573 19.5342 83.3455 19.1872 87.1378 18.7937C93.3295 18.1569 100.347 17.4343 100.772 14.2075C101.517 8.56235 90.5827 3.89742 90.4835 3.85449H90.487C91.2526 4.07629 92.0004 4.32671 92.7305 4.59859C93.1097 4.74169 93.4854 4.88836 93.8505 5.04577C96.9339 6.70926 101.811 10.0362 101.251 14.2719Z" fill="white"/>
</g>
<path d="M79.5667 21.2077C79.5631 21.2686 79.5596 21.333 79.556 21.3938C79.5489 21.4975 79.5383 21.6048 79.5206 21.7086C79.517 21.7122 79.517 21.7122 79.517 21.7193V21.7229C79.4922 21.9196 79.4568 22.1057 79.4143 22.2917C79.3965 22.3632 79.3788 22.4312 79.3611 22.4992C79.3434 22.5636 79.3257 22.6244 79.3079 22.6888C79.2689 22.8247 79.2229 22.9607 79.1733 23.0895C79.113 23.254 79.0457 23.4114 78.9783 23.5653C78.9287 23.6726 78.8755 23.7799 78.8224 23.8801C78.8117 23.8979 78.8047 23.9158 78.794 23.9301C78.7905 23.9301 78.7905 23.9337 78.7905 23.9337C78.5424 24.3737 78.2624 24.7243 77.9789 24.9426C77.9789 24.9426 77.9753 24.9426 77.9753 24.9461C77.9044 24.9962 77.8371 25.0427 77.7662 25.0785C77.3338 25.3039 75.1612 25.5221 72.2621 25.497C68.569 25.4613 63.7135 25.032 59.8113 23.7155C56.5471 22.6172 53.9634 20.9001 53.2829 18.2779C52.1524 13.9134 55.7391 9.2306 61.5409 6.13615C62.0548 5.86069 62.5864 5.59954 63.1322 5.3527C63.6603 5.11301 64.2026 4.88406 64.759 4.67657C66.7402 3.91458 68.8916 3.33505 71.1386 2.98804L78.8295 4.50128H78.8401V11.9423H78.8295C73.7436 11.9459 70.1037 15.373 70.1037 15.373L70.1178 15.3766C70.4297 15.441 75.4341 16.4605 78.11 17.6411C78.3971 17.87 78.6381 18.1276 78.833 18.4066C78.9819 18.6141 79.1059 18.8359 79.2051 19.0613C79.237 19.1364 79.2689 19.208 79.2938 19.2831C79.3221 19.3582 79.3469 19.4334 79.3682 19.5085C79.4178 19.6587 79.4532 19.8126 79.4816 19.97C79.4958 20.0487 79.5099 20.1274 79.5206 20.2061C79.5454 20.3635 79.5596 20.5209 79.5631 20.6819C79.5808 20.8536 79.5773 21.0324 79.5667 21.2077Z" fill="url(#paint7_linear_126_82)"/>
<path d="M85.6586 31.2968C85.2085 32.0123 84.5458 31.9586 84.1346 31.8334C84.1346 31.8334 84.1311 31.8334 84.124 31.8298C84.085 31.8191 84.0496 31.8048 84.0177 31.7941C84.0177 31.7941 84.0141 31.7941 84.0141 31.7905C83.8582 31.7332 83.7625 31.6724 83.7625 31.6724C83.7625 31.6724 83.3266 32.252 82.8091 32.048C82.8091 32.048 82.7666 32.4165 82.476 32.5703C82.4405 32.5882 82.398 32.6061 82.3519 32.6169H82.3484C82.242 32.6455 82.1074 32.6455 81.9443 32.6025C81.9443 32.6025 81.5686 33.1248 81.0193 32.8351C80.9697 32.8065 80.9236 32.7707 80.8775 32.7242C80.4487 32.2555 80.3317 30.7924 80.3849 28.9429C80.4203 27.7731 80.3353 26.3528 79.8284 25.2224C79.7328 25.0041 79.6193 24.7967 79.4882 24.6071C79.3039 24.3316 79.0806 24.0883 78.8184 23.8844C78.8751 23.7843 78.9247 23.6805 78.9743 23.5696C79.0452 23.4194 79.109 23.2584 79.1692 23.0938C79.2188 22.965 79.2649 22.8291 79.3039 22.6931C79.3216 22.6288 79.3394 22.5679 79.3571 22.5035C79.3748 22.4356 79.3925 22.3676 79.4102 22.2961C79.4528 22.1065 79.4882 21.9168 79.513 21.7237C79.513 21.7201 79.513 21.7165 79.5166 21.7129C79.5272 21.6092 79.5414 21.5019 79.5485 21.3981C79.5697 21.1584 79.5768 20.9188 79.5662 20.6755C79.5591 20.5181 79.5449 20.3571 79.5236 20.1997C79.513 20.121 79.4988 20.0423 79.4847 19.9636C79.4563 19.8062 79.4173 19.6524 79.3713 19.5021C79.35 19.427 79.3216 19.3519 79.2968 19.2767C79.2685 19.2016 79.2401 19.1265 79.2082 19.0549C80.034 19.3733 81.6821 19.9564 82.8056 20.1031C83.4187 20.1818 83.8476 20.1639 84.1594 20.2605C84.6379 20.4036 84.8293 20.8222 84.9675 22.2853C85.0987 23.6376 85.5169 25.9665 85.7366 27.9412C85.9103 29.4866 85.9634 30.8103 85.6586 31.2968Z" fill="url(#paint8_linear_126_82)"/>
<g opacity="0.45">
<path opacity="0.45" d="M81.6434 31.092C81.6859 31.3603 81.8631 32.7842 80.8813 32.7233C80.9239 32.7734 80.97 32.8092 81.0231 32.8342C81.5725 33.124 81.9482 32.6017 81.9482 32.6017C82.1112 32.6446 82.2423 32.6446 82.3522 32.616C81.9588 32.5015 81.6965 31.3317 81.6434 31.092Z" fill="url(#paint9_linear_126_82)"/>
<path opacity="0.45" d="M83.21 30.2659C83.3411 31.5716 83.3411 31.8972 82.9513 31.8328C82.6217 31.7755 82.4161 31.0422 82.3594 30.8239C82.4161 31.1066 82.65 32.3014 82.4728 32.5697C82.7634 32.4195 82.8059 32.0474 82.8059 32.0474C83.3234 32.2513 83.7593 31.6718 83.7593 31.6718C83.7593 31.6718 83.855 31.729 84.011 31.7898C83.816 31.6968 83.4297 31.3677 83.21 30.2659Z" fill="url(#paint10_linear_126_82)"/>
<path opacity="0.45" d="M85.7408 27.9409C85.5281 29.379 85.0461 31.6829 84.1353 31.8331C84.5464 31.9583 85.2127 32.012 85.6593 31.2965C85.9641 30.81 85.9109 29.4864 85.7408 27.9409Z" fill="url(#paint11_linear_126_82)"/>
</g>
<g opacity="0.25">
<path opacity="0.25" d="M79.5656 21.2086C79.562 21.2694 79.5585 21.3338 79.5549 21.3946C79.5478 21.4983 79.5372 21.6057 79.5195 21.7094C79.5159 21.713 79.5159 21.713 79.5159 21.7201C77.6871 20.858 73.101 20.028 69.4504 19.6524C62.7696 18.9655 55.8585 18.2536 55.3835 14.644C54.898 10.945 58.5556 7.93641 61.5433 6.12982C61.9757 5.86867 62.3975 5.62899 62.7874 5.4215C63.1524 5.26409 63.5281 5.11742 63.9073 4.97432C64.1873 4.87058 64.4744 4.76683 64.7615 4.67024C65.2187 4.51284 65.6794 4.36617 66.1473 4.23022H66.1508C66.048 4.27315 55.1177 8.93809 55.862 14.5832C56.2873 17.81 63.3048 18.5327 69.4965 19.1695C73.2037 19.5487 77.6517 20.375 79.5656 21.2086Z" fill="white"/>
</g>
<path opacity="0.45" d="M92.7316 4.5977C91.8632 4.60486 90.6866 4.34371 89.8962 4.81592C88.6309 5.57433 86.5576 4.49395 85.0088 5.43839C83.7187 6.22899 81.22 6.31843 78.8454 6.72983C78.8419 6.72625 78.8383 6.72983 78.8348 6.73341C78.3705 6.81211 77.9098 6.90155 77.4667 7.01602C74.7448 7.70288 72.9018 5.89272 70.5414 6.41502C68.1774 6.93732 67.4012 5.07707 65.374 5.43839C64.3178 5.62799 63.5948 5.50636 63.1411 5.34538C65.5547 4.25069 68.2696 3.42431 71.1439 2.98071L78.8348 4.49395H78.8454L86.5363 2.98071C88.7125 3.31699 90.7964 3.87507 92.7316 4.5977Z" fill="url(#paint12_linear_126_82)"/>
<path d="M66.9252 -0.847067C64.5825 1.82167 61.336 4.44391 57.6217 4.44391C56.1615 4.44391 54.9033 4.33659 53.8223 4.15414C49.3 3.41004 47.8327 1.44962 47.4251 1.14555C46.9218 0.766341 46.0428 1.01318 44.1999 0.54812C42.3569 0.0830579 40.8152 -2.92554 41.4779 -3.20458C42.0946 -3.45857 43.4627 -1.73784 43.8419 -1.46596C43.8419 -1.46596 43.8419 -1.46596 43.8454 -1.46238C43.8738 -1.44449 43.8951 -1.43018 43.9128 -1.42661C43.9872 -1.41588 44.012 -1.491 44.0333 -1.62336C44.0723 -1.9024 44.0758 -2.42828 44.4196 -2.86472C44.9229 -3.50508 45.4439 -3.71972 45.7026 -3.24035C45.7061 -3.22962 45.7132 -3.22246 45.7168 -3.21173C45.9188 -2.73951 44.976 -2.21006 45.2844 -1.64483C45.5998 -1.06171 47.099 -1.25131 47.2124 -1.84874C47.3258 -2.44617 46.8226 -2.91123 46.4788 -3.04001C46.3583 -3.08652 46.2768 -3.21173 46.2449 -3.3584C46.1846 -3.63029 46.3087 -3.98087 46.7162 -4.03453C47.34 -4.12397 48.2296 -3.92721 48.4883 -2.76813C48.7435 -1.61263 49.3496 -0.632424 50.8417 -0.478595C55.5873 0.00793142 60.1345 -3.98803 62.1583 -7.21484C62.4135 -5.87332 63.1613 -4.05957 65.1425 -2.24225C65.6493 -1.77719 66.2376 -1.30855 66.9252 -0.847067Z" fill="url(#paint13_linear_126_82)"/>
<path d="M113.455 0.541272C111.608 1.00633 110.733 0.759496 110.226 1.1387C109.9 1.38196 108.886 2.69845 106.154 3.5928C104.672 4.07575 102.687 4.43707 100.029 4.43707C96.3114 4.43707 93.0684 1.81483 90.7257 -0.850337L90.7222 -0.853915C90.8249 -0.925463 90.9277 -0.993433 91.0305 -1.06498C91.1404 -1.14011 91.2467 -1.21523 91.3459 -1.29751C91.4345 -1.36191 91.5196 -1.4263 91.6047 -1.49427C91.7854 -1.63736 91.9626 -1.78046 92.1292 -1.92356C92.3808 -2.1382 92.6148 -2.35285 92.831 -2.56391C92.9798 -2.70701 93.118 -2.8501 93.2456 -2.9932C93.4689 -3.23646 93.6745 -3.47973 93.8588 -3.72299C94.2912 -4.28822 94.6208 -4.83914 94.8689 -5.36144C95.1949 -6.04473 95.3863 -6.67792 95.4891 -7.23242C95.4926 -7.23242 95.4926 -7.22885 95.4926 -7.22885C97.2612 -4.40985 100.958 -1.00059 105.027 -0.51406C105.611 -0.442512 106.21 -0.431781 106.806 -0.492597C108.298 -0.642848 108.904 -1.62306 109.159 -2.77856C109.418 -3.93406 110.304 -4.13082 110.931 -4.04496C111.558 -3.95552 111.516 -3.17923 111.169 -3.05044C110.825 -2.92165 110.318 -2.45659 110.435 -1.85916C110.552 -1.26174 112.048 -1.07214 112.363 -1.65525C112.678 -2.23479 111.686 -2.77498 111.945 -3.25435C112.204 -3.73372 112.725 -3.5155 113.228 -2.87872C113.735 -2.23837 113.501 -1.41199 113.735 -1.44061C113.965 -1.46923 115.503 -3.49046 116.166 -3.215C116.839 -2.93239 115.298 0.07621 113.455 0.541272Z" fill="url(#paint14_linear_126_82)"/>
<path opacity="0.45" d="M77.4648 5.13452C77.4648 5.13452 77.9681 7.81041 78.2552 8.38995C78.5423 8.97307 79.2334 8.88721 79.2334 8.88721" stroke="white" stroke-width="0.684" stroke-miterlimit="10"/>
<path opacity="0.45" d="M79.064 5.44116L79.149 11.9377" stroke="white" stroke-width="0.684" stroke-miterlimit="10"/>
<path d="M95.4982 -7.22475C95.3954 -6.67025 95.204 -6.03705 94.8779 -5.35377C94.6298 -4.83147 94.3002 -4.28055 93.8643 -3.71532C93.68 -3.47564 93.4744 -3.23237 93.2511 -2.98553C93.1236 -2.84601 92.9853 -2.69934 92.8365 -2.55624C92.6203 -2.33802 92.3899 -2.12696 92.1347 -1.91589C91.9681 -1.77279 91.7945 -1.6297 91.6102 -1.4866C91.5251 -1.41863 91.4401 -1.35424 91.3515 -1.28984C91.2487 -1.21114 91.1424 -1.13244 91.036 -1.05732C90.9368 -0.985767 90.834 -0.917795 90.7312 -0.846247L90.7277 -0.849825C90.3839 -1.23976 90.0614 -1.63327 89.7601 -2.01963C89.7566 -2.01963 89.7566 -2.01963 89.7566 -2.01963C87.9242 -4.34852 86.8574 -6.41268 86.8574 -6.41268C86.8574 -6.41268 86.3364 -3.48995 86.6838 -1.88012C87.0311 -0.266708 87.5911 1.74021 87.3323 2.74188C87.0736 3.74356 82.4236 5.66104 78.8263 5.66104C76.48 5.66104 73.6837 4.84539 71.9506 3.99755C71.0291 3.5468 70.4124 3.08889 70.3202 2.74188C70.0651 1.73664 70.6215 -0.270285 70.9688 -1.88012C71.3126 -3.48995 70.7916 -6.41268 70.7916 -6.41268C70.7916 -6.41268 69.342 -3.608 66.9214 -0.846247C66.2338 -1.30773 65.6454 -1.77637 65.1351 -2.24501C63.1539 -4.06233 62.4096 -5.87607 62.1509 -7.2176C62.2926 -7.44655 62.4238 -7.67192 62.5443 -7.89372C64.0931 -10.795 67.9952 -19.4809 75.4345 -21.5987C76.4907 -21.8992 77.6213 -22.0674 78.8263 -22.0674C80.0809 -22.0674 81.2576 -21.8814 82.3528 -21.5558C85.4008 -20.6507 87.8533 -18.6402 89.7814 -16.3936C92.5069 -13.2241 94.201 -9.58226 95.1048 -7.89372C95.2253 -7.67908 95.3564 -7.45728 95.4982 -7.22475C95.4982 -7.22475 95.4982 -7.22833 95.4982 -7.22475Z" fill="url(#paint15_linear_126_82)"/>
<g opacity="0.25">
<path opacity="0.25" d="M79.7596 1.06177C80.0219 1.06177 80.2345 0.847149 80.2345 0.582399C80.2345 0.31765 80.0219 0.103027 79.7596 0.103027C79.4973 0.103027 79.2847 0.31765 79.2847 0.582399C79.2847 0.847149 79.4973 1.06177 79.7596 1.06177Z" fill="url(#paint16_linear_126_82)"/>
<path opacity="0.25" d="M81.6307 0.103027C81.3684 0.103027 81.1558 0.317672 81.1558 0.582399C81.1558 0.847127 81.3684 1.06177 81.6307 1.06177C81.8929 1.06177 82.1056 0.847127 82.1056 0.582399C82.1056 0.317672 81.8929 0.103027 81.6307 0.103027Z" fill="url(#paint17_linear_126_82)"/>
<path opacity="0.25" d="M83.5013 0.103027C83.239 0.103027 83.0264 0.317672 83.0264 0.582399C83.0264 0.847127 83.239 1.06177 83.5013 1.06177C83.7636 1.06177 83.9762 0.847127 83.9762 0.582399C83.9762 0.317672 83.7636 0.103027 83.5013 0.103027Z" fill="url(#paint18_linear_126_82)"/>
<path opacity="0.25" d="M85.3748 0.103027C85.1126 0.103027 84.8999 0.317672 84.8999 0.582399C84.8999 0.847127 85.1126 1.06177 85.3748 1.06177C85.6371 1.06177 85.8497 0.847127 85.8497 0.582399C85.8497 0.317672 85.6371 0.103027 85.3748 0.103027Z" fill="url(#paint19_linear_126_82)"/>
<path opacity="0.25" d="M87.2488 0.103027C86.9866 0.103027 86.7739 0.317672 86.7739 0.582399C86.7739 0.847127 86.9866 1.06177 87.2488 1.06177C87.5111 1.06177 87.7238 0.847127 87.7238 0.582399C87.7238 0.317672 87.5111 0.103027 87.2488 0.103027Z" fill="url(#paint20_linear_126_82)"/>
<path opacity="0.25" d="M89.1199 1.06177C89.3822 1.06177 89.5949 0.847149 89.5949 0.582399C89.5949 0.31765 89.3822 0.103027 89.1199 0.103027C88.8576 0.103027 88.645 0.31765 88.645 0.582399C88.645 0.847149 88.8576 1.06177 89.1199 1.06177Z" fill="url(#paint21_linear_126_82)"/>
<path opacity="0.25" d="M79.7596 2.58032C80.0219 2.58032 80.2345 2.3657 80.2345 2.10095C80.2345 1.8362 80.0219 1.62158 79.7596 1.62158C79.4973 1.62158 79.2847 1.8362 79.2847 2.10095C79.2847 2.3657 79.4973 2.58032 79.7596 2.58032Z" fill="url(#paint22_linear_126_82)"/>
<path opacity="0.25" d="M81.6307 1.62158C81.3684 1.62158 81.1558 1.83622 81.1558 2.10095C81.1558 2.36567 81.3684 2.58032 81.6307 2.58032C81.8929 2.58032 82.1056 2.36567 82.1056 2.10095C82.1056 1.83622 81.8929 1.62158 81.6307 1.62158Z" fill="url(#paint23_linear_126_82)"/>
<path opacity="0.25" d="M83.5013 1.62158C83.239 1.62158 83.0264 1.83622 83.0264 2.10095C83.0264 2.36567 83.239 2.58032 83.5013 2.58032C83.7636 2.58032 83.9762 2.36567 83.9762 2.10095C83.9762 1.83622 83.7636 1.62158 83.5013 1.62158Z" fill="url(#paint24_linear_126_82)"/>
<path opacity="0.25" d="M85.3748 1.62158C85.1126 1.62158 84.8999 1.83622 84.8999 2.10095C84.8999 2.36567 85.1126 2.58032 85.3748 2.58032C85.6371 2.58032 85.8497 2.36567 85.8497 2.10095C85.8497 1.83622 85.6371 1.62158 85.3748 1.62158Z" fill="url(#paint25_linear_126_82)"/>
<path opacity="0.25" d="M87.2488 1.62158C86.9866 1.62158 86.7739 1.83622 86.7739 2.10095C86.7739 2.36567 86.9866 2.58032 87.2488 2.58032C87.5111 2.58032 87.7238 2.36567 87.7238 2.10095C87.7238 1.83622 87.5111 1.62158 87.2488 1.62158Z" fill="url(#paint26_linear_126_82)"/>
<path opacity="0.25" d="M89.1199 2.58032C89.3822 2.58032 89.5949 2.3657 89.5949 2.10095C89.5949 1.8362 89.3822 1.62158 89.1199 1.62158C88.8576 1.62158 88.645 1.8362 88.645 2.10095C88.645 2.3657 88.8576 2.58032 89.1199 2.58032Z" fill="url(#paint27_linear_126_82)"/>
<path opacity="0.25" d="M79.7596 3.13721C79.4973 3.13721 79.2847 3.35185 79.2847 3.61658C79.2847 3.88131 79.4973 4.09595 79.7596 4.09595C80.0219 4.09595 80.2345 3.88131 80.2345 3.61658C80.2345 3.35185 80.0219 3.13721 79.7596 3.13721Z" fill="url(#paint28_linear_126_82)"/>
<path opacity="0.25" d="M81.6307 3.13721C81.3684 3.13721 81.1558 3.35185 81.1558 3.61658C81.1558 3.88131 81.3684 4.09595 81.6307 4.09595C81.8929 4.09595 82.1056 3.88131 82.1056 3.61658C82.1056 3.35185 81.8929 3.13721 81.6307 3.13721Z" fill="url(#paint29_linear_126_82)"/>
<path opacity="0.25" d="M83.5013 3.13721C83.239 3.13721 83.0264 3.35185 83.0264 3.61658C83.0264 3.88131 83.239 4.09595 83.5013 4.09595C83.7636 4.09595 83.9762 3.88131 83.9762 3.61658C83.9762 3.35185 83.7636 3.13721 83.5013 3.13721Z" fill="url(#paint30_linear_126_82)"/>
<path opacity="0.25" d="M85.3748 3.13721C85.1126 3.13721 84.8999 3.35185 84.8999 3.61658C84.8999 3.88131 85.1126 4.09595 85.3748 4.09595C85.6371 4.09595 85.8497 3.88131 85.8497 3.61658C85.8497 3.35185 85.6371 3.13721 85.3748 3.13721Z" fill="url(#paint31_linear_126_82)"/>
<path opacity="0.25" d="M87.2488 3.13721C86.9866 3.13721 86.7739 3.35185 86.7739 3.61658C86.7739 3.88131 86.9866 4.09595 87.2488 4.09595C87.5111 4.09595 87.7238 3.88131 87.7238 3.61658C87.7238 3.35185 87.5111 3.13721 87.2488 3.13721Z" fill="url(#paint32_linear_126_82)"/>
<path opacity="0.25" d="M89.1199 3.13721C88.8577 3.13721 88.645 3.35185 88.645 3.61658C88.645 3.88131 88.8577 4.09595 89.1199 4.09595C89.3822 4.09595 89.5949 3.88131 89.5949 3.61658C89.5949 3.35185 89.3822 3.13721 89.1199 3.13721Z" fill="url(#paint33_linear_126_82)"/>
<path opacity="0.25" d="M79.7596 5.61255C80.0219 5.61255 80.2345 5.39793 80.2345 5.13318C80.2345 4.86843 80.0219 4.65381 79.7596 4.65381C79.4973 4.65381 79.2847 4.86843 79.2847 5.13318C79.2847 5.39793 79.4973 5.61255 79.7596 5.61255Z" fill="url(#paint34_linear_126_82)"/>
<path opacity="0.25" d="M81.6307 4.65381C81.3684 4.65381 81.1558 4.86845 81.1558 5.13318C81.1558 5.39791 81.3684 5.61255 81.6307 5.61255C81.8929 5.61255 82.1056 5.39791 82.1056 5.13318C82.1056 4.86845 81.8929 4.65381 81.6307 4.65381Z" fill="url(#paint35_linear_126_82)"/>
<path opacity="0.25" d="M83.5013 4.65381C83.239 4.65381 83.0264 4.86845 83.0264 5.13318C83.0264 5.39791 83.239 5.61255 83.5013 5.61255C83.7636 5.61255 83.9762 5.39791 83.9762 5.13318C83.9762 4.86845 83.7636 4.65381 83.5013 4.65381Z" fill="url(#paint36_linear_126_82)"/>
<path opacity="0.25" d="M85.3748 4.65381C85.1126 4.65381 84.8999 4.86845 84.8999 5.13318C84.8999 5.39791 85.1126 5.61255 85.3748 5.61255C85.6371 5.61255 85.8497 5.39791 85.8497 5.13318C85.8497 4.86845 85.6371 4.65381 85.3748 4.65381Z" fill="url(#paint37_linear_126_82)"/>
<path opacity="0.25" d="M87.2488 4.65381C86.9866 4.65381 86.7739 4.86845 86.7739 5.13318C86.7739 5.39791 86.9866 5.61255 87.2488 5.61255C87.5111 5.61255 87.7238 5.39791 87.7238 5.13318C87.7238 4.86845 87.5111 4.65381 87.2488 4.65381Z" fill="url(#paint38_linear_126_82)"/>
<path opacity="0.25" d="M89.1199 5.61255C89.3822 5.61255 89.5949 5.39793 89.5949 5.13318C89.5949 4.86843 89.3822 4.65381 89.1199 4.65381C88.8576 4.65381 88.645 4.86843 88.645 5.13318C88.645 5.39793 88.8576 5.61255 89.1199 5.61255Z" fill="url(#paint39_linear_126_82)"/>
<path opacity="0.25" d="M79.7596 6.17188C79.4973 6.17188 79.2847 6.38652 79.2847 6.65125C79.2847 6.91598 79.4973 7.13062 79.7596 7.13062C80.0219 7.13062 80.2345 6.91598 80.2345 6.65125C80.2345 6.38652 80.0219 6.17188 79.7596 6.17188Z" fill="url(#paint40_linear_126_82)"/>
<path opacity="0.25" d="M81.6307 6.17188C81.3684 6.17188 81.1558 6.38652 81.1558 6.65125C81.1558 6.91598 81.3684 7.13062 81.6307 7.13062C81.8929 7.13062 82.1056 6.91598 82.1056 6.65125C82.1056 6.38652 81.8929 6.17188 81.6307 6.17188Z" fill="url(#paint41_linear_126_82)"/>
<path opacity="0.25" d="M83.5013 6.17188C83.239 6.17188 83.0264 6.38652 83.0264 6.65125C83.0264 6.91598 83.239 7.13062 83.5013 7.13062C83.7636 7.13062 83.9762 6.91598 83.9762 6.65125C83.9762 6.38652 83.7636 6.17188 83.5013 6.17188Z" fill="url(#paint42_linear_126_82)"/>
<path opacity="0.25" d="M85.3748 6.17188C85.1126 6.17188 84.8999 6.38652 84.8999 6.65125C84.8999 6.91598 85.1126 7.13062 85.3748 7.13062C85.6371 7.13062 85.8497 6.91598 85.8497 6.65125C85.8497 6.38652 85.6371 6.17188 85.3748 6.17188Z" fill="url(#paint43_linear_126_82)"/>
<path opacity="0.25" d="M87.2488 6.17188C86.9866 6.17188 86.7739 6.38652 86.7739 6.65125C86.7739 6.91598 86.9866 7.13062 87.2488 7.13062C87.5111 7.13062 87.7238 6.91598 87.7238 6.65125C87.7238 6.38652 87.5111 6.17188 87.2488 6.17188Z" fill="url(#paint44_linear_126_82)"/>
<path opacity="0.25" d="M89.1199 6.17188C88.8577 6.17188 88.645 6.38652 88.645 6.65125C88.645 6.91598 88.8577 7.13062 89.1199 7.13062C89.3822 7.13062 89.5949 6.91598 89.5949 6.65125C89.5949 6.38652 89.3822 6.17188 89.1199 6.17188Z" fill="url(#paint45_linear_126_82)"/>
<path opacity="0.25" d="M79.7596 7.68799C79.4973 7.68799 79.2847 7.90263 79.2847 8.16736C79.2847 8.43208 79.4973 8.64673 79.7596 8.64673C80.0219 8.64673 80.2345 8.43208 80.2345 8.16736C80.2345 7.90263 80.0219 7.68799 79.7596 7.68799Z" fill="url(#paint46_linear_126_82)"/>
<path opacity="0.25" d="M81.6307 7.68799C81.3684 7.68799 81.1558 7.90263 81.1558 8.16736C81.1558 8.43208 81.3684 8.64673 81.6307 8.64673C81.8929 8.64673 82.1056 8.43208 82.1056 8.16736C82.1056 7.90263 81.8929 7.68799 81.6307 7.68799Z" fill="url(#paint47_linear_126_82)"/>
<path opacity="0.25" d="M83.5013 7.68799C83.239 7.68799 83.0264 7.90263 83.0264 8.16736C83.0264 8.43208 83.239 8.64673 83.5013 8.64673C83.7636 8.64673 83.9762 8.43208 83.9762 8.16736C83.9762 7.90263 83.7636 7.68799 83.5013 7.68799Z" fill="url(#paint48_linear_126_82)"/>
<path opacity="0.25" d="M85.3748 7.68799C85.1126 7.68799 84.8999 7.90263 84.8999 8.16736C84.8999 8.43208 85.1126 8.64673 85.3748 8.64673C85.6371 8.64673 85.8497 8.43208 85.8497 8.16736C85.8497 7.90263 85.6371 7.68799 85.3748 7.68799Z" fill="url(#paint49_linear_126_82)"/>
<path opacity="0.25" d="M87.2488 7.68799C86.9866 7.68799 86.7739 7.90263 86.7739 8.16736C86.7739 8.43208 86.9866 8.64673 87.2488 8.64673C87.5111 8.64673 87.7238 8.43208 87.7238 8.16736C87.7238 7.90263 87.5111 7.68799 87.2488 7.68799Z" fill="url(#paint50_linear_126_82)"/>
<path opacity="0.25" d="M89.1199 7.68799C88.8577 7.68799 88.645 7.90263 88.645 8.16736C88.645 8.43208 88.8577 8.64673 89.1199 8.64673C89.3822 8.64673 89.5949 8.43208 89.5949 8.16736C89.5949 7.90263 89.3822 7.68799 89.1199 7.68799Z" fill="url(#paint51_linear_126_82)"/>
</g>
<g opacity="0.25">
<path opacity="0.25" d="M64.9344 0.23584C64.6721 0.23584 64.4595 0.450486 64.4595 0.715214C64.4595 0.979943 64.6721 1.19459 64.9344 1.19459C65.1967 1.19459 65.4093 0.979943 65.4093 0.715214C65.4093 0.450486 65.1967 0.23584 64.9344 0.23584Z" fill="url(#paint52_linear_126_82)"/>
<path opacity="0.25" d="M66.8055 0.23584C66.5432 0.23584 66.3306 0.450486 66.3306 0.715214C66.3306 0.979943 66.5432 1.19459 66.8055 1.19459C67.0678 1.19459 67.2804 0.979943 67.2804 0.715214C67.2804 0.450486 67.0678 0.23584 66.8055 0.23584Z" fill="url(#paint53_linear_126_82)"/>
<path opacity="0.25" d="M68.6756 0.23584C68.4133 0.23584 68.2007 0.450486 68.2007 0.715214C68.2007 0.979943 68.4133 1.19459 68.6756 1.19459C68.9379 1.19459 69.1505 0.979943 69.1505 0.715214C69.1505 0.450486 68.9379 0.23584 68.6756 0.23584Z" fill="url(#paint54_linear_126_82)"/>
<path opacity="0.25" d="M70.5496 0.23584C70.2874 0.23584 70.0747 0.450486 70.0747 0.715214C70.0747 0.979943 70.2874 1.19459 70.5496 1.19459C70.8119 1.19459 71.0245 0.979943 71.0245 0.715214C71.0245 0.450486 70.8119 0.23584 70.5496 0.23584Z" fill="url(#paint55_linear_126_82)"/>
<path opacity="0.25" d="M72.4237 0.23584C72.1614 0.23584 71.9487 0.450486 71.9487 0.715214C71.9487 0.979943 72.1614 1.19459 72.4237 1.19459C72.6859 1.19459 72.8986 0.979943 72.8986 0.715214C72.8986 0.450486 72.6859 0.23584 72.4237 0.23584Z" fill="url(#paint56_linear_126_82)"/>
<path opacity="0.25" d="M74.2947 0.23584C74.0325 0.23584 73.8198 0.450486 73.8198 0.715214C73.8198 0.979943 74.0325 1.19459 74.2947 1.19459C74.557 1.19459 74.7697 0.979943 74.7697 0.715214C74.7697 0.450486 74.557 0.23584 74.2947 0.23584Z" fill="url(#paint57_linear_126_82)"/>
<path opacity="0.25" d="M64.9344 1.75244C64.6721 1.75244 64.4595 1.96709 64.4595 2.23181C64.4595 2.49654 64.6721 2.71118 64.9344 2.71118C65.1967 2.71118 65.4093 2.49654 65.4093 2.23181C65.4093 1.96709 65.1967 1.75244 64.9344 1.75244Z" fill="url(#paint58_linear_126_82)"/>
<path opacity="0.25" d="M66.8055 1.75244C66.5432 1.75244 66.3306 1.96709 66.3306 2.23181C66.3306 2.49654 66.5432 2.71118 66.8055 2.71118C67.0678 2.71118 67.2804 2.49654 67.2804 2.23181C67.2804 1.96709 67.0678 1.75244 66.8055 1.75244Z" fill="url(#paint59_linear_126_82)"/>
<path opacity="0.25" d="M68.6756 1.75244C68.4133 1.75244 68.2007 1.96709 68.2007 2.23181C68.2007 2.49654 68.4133 2.71118 68.6756 2.71118C68.9379 2.71118 69.1505 2.49654 69.1505 2.23181C69.1505 1.96709 68.9379 1.75244 68.6756 1.75244Z" fill="url(#paint60_linear_126_82)"/>
<path opacity="0.25" d="M70.5496 1.75244C70.2874 1.75244 70.0747 1.96709 70.0747 2.23181C70.0747 2.49654 70.2874 2.71118 70.5496 2.71118C70.8119 2.71118 71.0245 2.49654 71.0245 2.23181C71.0245 1.96709 70.8119 1.75244 70.5496 1.75244Z" fill="url(#paint61_linear_126_82)"/>
<path opacity="0.25" d="M72.4237 1.75244C72.1614 1.75244 71.9487 1.96709 71.9487 2.23181C71.9487 2.49654 72.1614 2.71118 72.4237 2.71118C72.6859 2.71118 72.8986 2.49654 72.8986 2.23181C72.8986 1.96709 72.6859 1.75244 72.4237 1.75244Z" fill="url(#paint62_linear_126_82)"/>
<path opacity="0.25" d="M74.2947 1.75244C74.0325 1.75244 73.8198 1.96709 73.8198 2.23181C73.8198 2.49654 74.0325 2.71118 74.2947 2.71118C74.557 2.71118 74.7697 2.49654 74.7697 2.23181C74.7697 1.96709 74.557 1.75244 74.2947 1.75244Z" fill="url(#paint63_linear_126_82)"/>
<path opacity="0.25" d="M64.9344 4.22901C65.1967 4.22901 65.4093 4.01439 65.4093 3.74964C65.4093 3.48489 65.1967 3.27026 64.9344 3.27026C64.6721 3.27026 64.4595 3.48489 64.4595 3.74964C64.4595 4.01439 64.6721 4.22901 64.9344 4.22901Z" fill="url(#paint64_linear_126_82)"/>
<path opacity="0.25" d="M66.8055 4.22901C67.0678 4.22901 67.2804 4.01439 67.2804 3.74964C67.2804 3.48489 67.0678 3.27026 66.8055 3.27026C66.5432 3.27026 66.3306 3.48489 66.3306 3.74964C66.3306 4.01439 66.5432 4.22901 66.8055 4.22901Z" fill="url(#paint65_linear_126_82)"/>
<path opacity="0.25" d="M68.6756 4.22901C68.9379 4.22901 69.1505 4.01439 69.1505 3.74964C69.1505 3.48489 68.9379 3.27026 68.6756 3.27026C68.4133 3.27026 68.2007 3.48489 68.2007 3.74964C68.2007 4.01439 68.4133 4.22901 68.6756 4.22901Z" fill="url(#paint66_linear_126_82)"/>
<path opacity="0.25" d="M70.5496 3.27026C70.2874 3.27026 70.0747 3.48491 70.0747 3.74964C70.0747 4.01437 70.2874 4.22901 70.5496 4.22901C70.8119 4.22901 71.0245 4.01437 71.0245 3.74964C71.0245 3.48491 70.8119 3.27026 70.5496 3.27026Z" fill="url(#paint67_linear_126_82)"/>
<path opacity="0.25" d="M72.4237 3.27026C72.1614 3.27026 71.9487 3.48491 71.9487 3.74964C71.9487 4.01437 72.1614 4.22901 72.4237 4.22901C72.6859 4.22901 72.8986 4.01437 72.8986 3.74964C72.8986 3.48491 72.6859 3.27026 72.4237 3.27026Z" fill="url(#paint68_linear_126_82)"/>
<path opacity="0.25" d="M74.2947 3.27026C74.0325 3.27026 73.8198 3.48491 73.8198 3.74964C73.8198 4.01437 74.0325 4.22901 74.2947 4.22901C74.557 4.22901 74.7697 4.01437 74.7697 3.74964C74.7697 3.48491 74.557 3.27026 74.2947 3.27026Z" fill="url(#paint69_linear_126_82)"/>
<path opacity="0.25" d="M64.9344 4.78687C64.6721 4.78687 64.4595 5.00151 64.4595 5.26624C64.4595 5.53096 64.6721 5.74561 64.9344 5.74561C65.1967 5.74561 65.4093 5.53096 65.4093 5.26624C65.4093 5.00151 65.1967 4.78687 64.9344 4.78687Z" fill="url(#paint70_linear_126_82)"/>
<path opacity="0.25" d="M66.8055 4.78687C66.5432 4.78687 66.3306 5.00151 66.3306 5.26624C66.3306 5.53096 66.5432 5.74561 66.8055 5.74561C67.0678 5.74561 67.2804 5.53096 67.2804 5.26624C67.2804 5.00151 67.0678 4.78687 66.8055 4.78687Z" fill="url(#paint71_linear_126_82)"/>
<path opacity="0.25" d="M68.6756 4.78687C68.4133 4.78687 68.2007 5.00151 68.2007 5.26624C68.2007 5.53096 68.4133 5.74561 68.6756 5.74561C68.9379 5.74561 69.1505 5.53096 69.1505 5.26624C69.1505 5.00151 68.9379 4.78687 68.6756 4.78687Z" fill="url(#paint72_linear_126_82)"/>
<path opacity="0.25" d="M70.5496 4.78687C70.2874 4.78687 70.0747 5.00151 70.0747 5.26624C70.0747 5.53096 70.2874 5.74561 70.5496 5.74561C70.8119 5.74561 71.0245 5.53096 71.0245 5.26624C71.0245 5.00151 70.8119 4.78687 70.5496 4.78687Z" fill="url(#paint73_linear_126_82)"/>
<path opacity="0.25" d="M72.4237 4.78687C72.1614 4.78687 71.9487 5.00151 71.9487 5.26624C71.9487 5.53096 72.1614 5.74561 72.4237 5.74561C72.6859 5.74561 72.8986 5.53096 72.8986 5.26624C72.8986 5.00151 72.6859 4.78687 72.4237 4.78687Z" fill="url(#paint74_linear_126_82)"/>
<path opacity="0.25" d="M74.2947 4.78687C74.0325 4.78687 73.8198 5.00151 73.8198 5.26624C73.8198 5.53096 74.0325 5.74561 74.2947 5.74561C74.557 5.74561 74.7697 5.53096 74.7697 5.26624C74.7697 5.00151 74.557 4.78687 74.2947 4.78687Z" fill="url(#paint75_linear_126_82)"/>
</g>
<path opacity="0.45" d="M87.3496 2.82361C87.0908 3.82528 82.4373 5.74634 78.8435 5.74634C76.4972 5.74634 73.7009 4.9307 71.9678 4.08286C73.4953 3.36738 76.6355 4.55507 77.4648 2.34424C78.4147 -0.184982 81.2252 1.85056 81.4414 -1.30829C81.6576 -4.46355 84.1208 -2.62835 85.1132 -4.76405C86.1056 -6.89976 86.8746 -6.33096 86.8746 -6.33096C86.8746 -6.33096 86.3572 -3.40822 86.701 -1.79839C87.0448 -0.184983 87.6047 1.82194 87.3496 2.82361Z" fill="url(#paint76_linear_126_82)"/>
<path opacity="0.45" d="M70.7954 -6.41352C70.7954 -6.41352 69.3423 -3.60526 66.9251 -0.847082C64.5824 1.82166 61.3359 4.44389 57.6216 4.44389C56.1614 4.44389 54.9032 4.33657 53.8223 4.15413C54.6658 3.7785 55.4632 3.34563 57.1006 3.61751C60.2975 4.13982 60.2124 0.737708 63.1931 0.215407C64.6852 -0.0457435 64.9227 -1.0975 65.1389 -2.24585C65.348 -3.38704 65.5394 -4.62482 66.9251 -5.27948C69.7073 -6.58881 67.8183 -9.68327 70.0653 -10.5562C71.0151 -9.72977 70.7954 -6.41352 70.7954 -6.41352Z" fill="url(#paint77_linear_126_82)"/>
<path opacity="0.45" d="M87.5706 15.3623C87.5706 15.3623 83.9307 11.9352 78.8448 11.9316H78.8341C73.7482 11.9352 70.1083 15.3623 70.1083 15.3623C70.1083 15.3623 66.1353 14.0279 64.7495 13.9135C63.3673 13.7954 64.8098 12.6936 66.9398 13.1586C69.0699 13.6237 67.4573 12.343 68.2618 11.6454C69.0663 10.9478 69.5413 12.2285 70.8314 12.2285C72.1214 12.2285 71.6323 10.5435 73.734 10.3361C75.8393 10.1321 75.7507 10.9192 76.9026 10.7439C77.6965 10.6222 78.0934 9.92823 78.8306 9.57765C78.8341 9.57407 78.8377 9.57407 78.8412 9.57407C79.1744 9.41666 79.582 9.33438 80.1278 9.40593C81.8857 9.63846 82.3181 11.3842 83.3849 11.7634C84.4481 12.1391 85.5397 10.7439 87.4146 11.2698C89.2895 11.7921 88.8004 13.7739 89.2895 14.239C89.7786 14.7005 91.8555 13.8884 92.139 14.4393C92.4297 14.9902 87.5706 15.3623 87.5706 15.3623Z" fill="url(#paint78_linear_126_82)"/>
<path opacity="0.45" d="M79.5572 21.395C79.5501 21.4988 79.5395 21.6061 79.5217 21.7098C79.5182 21.7134 79.5182 21.7134 79.5182 21.7206C79.4934 21.9173 79.4579 22.1069 79.4154 22.293C79.3977 22.3645 79.38 22.4325 79.3623 22.5004C79.3445 22.5648 79.3268 22.6256 79.3091 22.69C79.2701 22.826 79.224 22.9619 79.1744 23.0907C79.1142 23.2553 79.0468 23.4127 78.9795 23.5665C78.9299 23.6738 78.8767 23.7811 78.8235 23.8813C78.8129 23.8992 78.8058 23.9171 78.7952 23.9314C78.7916 23.9314 78.7916 23.935 78.7916 23.935C78.5435 24.375 78.2636 24.7256 77.98 24.9438C77.98 24.9438 77.9765 24.9438 77.9765 24.9474C77.9056 24.9975 77.8383 25.044 77.7674 25.0797C77.335 25.3051 75.1624 25.5233 72.2632 25.4983C68.5702 25.4625 63.7147 25.0332 59.8125 23.7168C62.4175 23.96 63.6757 23.0478 66.0148 23.6881C68.7793 24.443 69.3322 21.8851 71.9655 22.9905C74.5989 24.0924 77.0763 20.1394 79.2347 21.2448C79.3445 21.2949 79.4509 21.3485 79.5572 21.395Z" fill="url(#paint79_linear_126_82)"/>
<path opacity="0.45" d="M84.1616 20.2602C83.6938 20.5213 83.3039 20.8755 83.187 21.3549C82.8467 22.7823 81.025 21.7055 80.6812 23.2688C80.4863 24.1417 79.9405 24.4779 79.4975 24.6032C79.3132 24.3277 79.0899 24.0844 78.8276 23.8805C78.8843 23.7804 78.934 23.6766 78.9836 23.5657C79.0545 23.4155 79.1183 23.2545 79.1785 23.0899C79.2281 22.9611 79.2742 22.8252 79.3132 22.6892C79.3309 22.6248 79.3486 22.564 79.3663 22.4996C79.3841 22.4317 79.4018 22.3637 79.4195 22.2922C79.462 22.1025 79.4975 21.9129 79.5223 21.7198C79.5223 21.7162 79.5223 21.7126 79.5258 21.709C79.5365 21.6053 79.5507 21.498 79.5577 21.3942C79.579 21.1545 79.5861 20.9149 79.5755 20.6716C79.5684 20.5142 79.5542 20.3532 79.5329 20.1958C79.5223 20.1171 79.5081 20.0384 79.4939 19.9597C79.4656 19.8023 79.4266 19.6485 79.3805 19.4982C79.3593 19.4231 79.3309 19.348 79.3061 19.2728C79.2777 19.1977 79.2494 19.1226 79.2175 19.051C80.0433 19.3694 81.6913 19.9525 82.8149 20.0992C83.4209 20.1815 83.8497 20.1636 84.1616 20.2602Z" fill="url(#paint80_linear_126_82)"/>
<path opacity="0.45" d="M106.153 3.59309C104.672 4.07604 102.687 4.43735 100.029 4.43735C96.311 4.43735 93.0681 1.81512 90.7289 -0.85005L90.7254 -0.853628C90.3851 -1.24356 90.0591 -1.63708 89.7578 -2.02344C89.8039 -2.00555 90.4915 -1.7444 91.3491 -1.29365C92.3025 -0.79281 93.4686 -0.0630196 94.1845 0.817022C95.5667 2.51629 97.3849 1.52892 98.9798 2.98135C100.578 4.43377 102.07 2.77744 103.527 3.34982C104.222 3.61813 105.257 3.64317 106.153 3.59309Z" fill="url(#paint81_linear_126_82)"/>
<path opacity="0.45" d="M105.033 -0.510622C102.364 0.759356 98.6815 -1.92012 97.4907 -3.39043C96.6755 -4.39926 95.6583 -4.62821 94.8786 -5.35442C94.875 -5.35442 94.875 -5.35442 94.875 -5.35442C94.4746 -5.7229 94.1379 -6.22373 93.9146 -7.01792C93.2589 -9.379 92.8513 -10.2841 91.0615 -12.731C89.8671 -14.3695 89.736 -15.6967 89.782 -16.3943C92.5075 -13.2247 94.2017 -9.58291 95.1054 -7.89438C95.2224 -7.67258 95.3571 -7.45078 95.4953 -7.22183C95.4988 -7.22183 95.4988 -7.21825 95.4988 -7.21825C97.2674 -4.40641 100.964 -0.997149 105.033 -0.510622Z" fill="url(#paint82_linear_126_82)"/>
<path d="M8.6664 1.6665C8.6664 1.6665 7.57479 17.4428 28.5954 28.4541" stroke="url(#paint83_linear_126_82)" stroke-width="1.3679" stroke-miterlimit="10" stroke-linecap="round" stroke-linejoin="round"/>
<path d="M9.80225 8.45975C9.80225 8.45975 10.3622 3.35837 12.3399 3.90929C14.3175 4.46379 13.3819 7.99468 9.80225 8.45975Z" fill="url(#paint84_linear_126_82)"/>
<path d="M9.79741 8.49881C9.79741 8.49881 6.94079 4.25244 5.44515 5.67624C3.95304 7.09647 6.41625 9.77594 9.79741 8.49881Z" fill="url(#paint85_linear_126_82)"/>
<path d="M13.2494 14.8131C13.2494 14.8131 12.3776 9.75828 14.4296 9.72966C16.4853 9.70104 16.5597 13.3571 13.2494 14.8131Z" fill="url(#paint86_linear_126_82)"/>
<path d="M13.2591 14.8447C13.2591 14.8447 9.34272 11.5713 8.30073 13.3565C7.25874 15.1416 10.3634 17.0233 13.2591 14.8447Z" fill="url(#paint87_linear_126_82)"/>
<path d="M18.1653 21.1781C18.1653 21.1781 16.5102 16.3271 18.5339 15.9694C20.5576 15.6152 21.2062 19.2141 18.1653 21.1781Z" fill="url(#paint88_linear_126_82)"/>
<path d="M18.1795 21.2098C18.1795 21.2098 13.7988 18.6019 13.051 20.5337C12.3032 22.4655 15.6631 23.8249 18.1795 21.2098Z" fill="url(#paint89_linear_126_82)"/>
<path d="M22.8826 24.1586C22.8826 24.1586 19.4129 20.4059 21.1176 19.2504C22.8259 18.0949 24.8674 21.1107 22.8826 24.1586Z" fill="url(#paint90_linear_126_82)"/>
<path d="M22.9107 24.1811C22.9107 24.1811 17.8603 23.6015 17.9524 25.6728C18.0481 27.7441 21.6667 27.6046 22.9107 24.1811Z" fill="url(#paint91_linear_126_82)"/>
<path d="M8.60693 2.18819C8.60693 2.18819 11.5663 -1.98664 13.023 -0.527057C14.4832 0.928947 11.9562 3.54761 8.60693 2.18819Z" fill="url(#paint92_linear_126_82)"/>
<path d="M8.584 2.21759C8.584 2.21759 8.14807 -2.89452 6.15623 -2.39369C4.1644 -1.88927 5.015 1.66667 8.584 2.21759Z" fill="url(#paint93_linear_126_82)"/>
<path d="M24.7317 28.7442C24.7317 28.7442 21.4107 21.6502 18.9972 17.318C16.5836 12.9857 21.3363 7.68402 24.6324 12.5171C27.9285 17.3502 28.5948 28.4544 28.5948 28.4544L24.7317 28.7442Z" fill="url(#paint94_linear_126_82)"/>
<g opacity="0.45">
<path opacity="0.45" d="M20.0523 11.1492C20.9703 12.4335 21.75 13.8036 22.4943 15.1916C23.235 16.5832 23.9297 17.9999 24.5853 19.438C25.2446 20.8725 25.8187 22.35 26.3078 23.8633C26.7827 25.3765 27.1868 26.9398 27.1832 28.5818L26.5949 28.5747C26.5984 27.0543 26.1838 25.5267 25.7336 24.0457C25.2729 22.5575 24.7023 21.0979 24.0856 19.6598C23.4689 18.2217 22.8097 16.7979 22.1009 15.3991C21.3991 13.9968 20.6761 12.6052 19.9956 11.1849L20.0523 11.1492Z" fill="black"/>
</g>
<path opacity="0.45" d="M19.5596 18.3479L24.0182 18.8344L25.5351 14.1194" stroke="black" stroke-width="0.7262" stroke-miterlimit="10"/>
<path opacity="0.45" d="M21.5586 22.2114L25.9711 23.7747L27.5447 20.6624" stroke="black" stroke-width="0.7262" stroke-miterlimit="10"/>
<path d="M39.7127 7.29517C39.7127 7.29517 39.7127 7.29874 39.702 7.3059C37.5826 10.429 37.1467 24.3844 35.1229 24.9389C33.0992 25.4934 32.3443 24.7922 32.6845 25.6902C33.0248 26.5845 34.6055 26.8886 34.5594 27.7221C34.5204 28.3875 31.7347 32.5802 30.473 35.9358C30.1504 36.7837 29.9307 37.5779 29.874 38.2433C29.6011 41.5702 24.5152 39.1054 24.5152 39.1054C24.5152 39.1054 22.9416 28.3339 23.4909 26.9923C24.0438 25.6544 24.9405 28.5199 25.7946 28.3482C26.6488 28.18 23.9658 25.4791 24.5754 23.3434C24.7597 22.6887 25.0362 21.9053 25.3551 21.1326C26.0888 19.3796 27.0883 17.6875 27.9814 17.7233C29.2644 17.7698 28.7576 18.843 29.6826 18.3636C30.6076 17.8843 28.4138 17.2511 29.3636 15.1225C30.317 12.9975 35.0272 8.23602 39.7127 7.29517Z" fill="url(#paint95_linear_126_82)"/>
<g opacity="0.45">
<path opacity="0.45" d="M39.7131 7.28955C37.9269 9.63275 36.2611 12.0403 34.691 14.5087C33.1209 16.9736 31.6855 19.5314 30.4876 22.2002C29.3145 24.876 28.3327 27.6414 27.7196 30.4961C27.4183 31.9271 27.227 33.3724 27.1029 34.8284C27.0037 36.288 27.032 37.7511 27.1454 39.2107L26.8229 39.25C26.6209 37.7797 26.5429 36.288 26.5855 34.7998C26.6457 33.3116 26.8123 31.8269 27.0958 30.3674C27.3864 28.9078 27.7515 27.4625 28.2052 26.0459C28.6624 24.6292 29.2152 23.2483 29.8107 21.8889C31.037 19.188 32.4511 16.5729 34.0956 14.1117C35.7472 11.6647 37.5831 9.32867 39.7131 7.28955Z" fill="black"/>
</g>
<path opacity="0.45" d="M27.7979 31.6231C28.7407 32.9325 29.9032 34.435 30.4773 35.9339C30.1548 36.7818 29.9351 37.5759 29.8784 38.2413C29.6055 41.5683 24.5196 39.1035 24.5196 39.1035C24.5196 39.1035 22.9459 28.3319 23.4953 26.9904C24.0482 25.6525 24.9449 28.518 25.799 28.3462C26.6532 28.1781 23.9702 25.4772 24.5798 23.3414C24.7641 22.6868 25.0406 21.9033 25.3595 21.1306C25.6643 22.3541 26.2066 23.8924 27.1564 25.0121C28.8187 26.9654 26.2952 28.4214 27.3337 30.8146C27.4435 31.0758 27.5959 31.3441 27.7979 31.6231Z" fill="url(#paint96_linear_126_82)"/>
<path d="M123.731 12.5654C123.731 12.5654 121.866 6.18688 120.36 2.22312C118.854 -1.74064 124.372 -5.18567 126.63 -0.653106C128.888 3.87946 127.473 13.034 127.473 13.034L123.731 12.5654Z" fill="url(#paint97_linear_126_82)"/>
<g opacity="0.45">
<path opacity="0.45" d="M122.507 -2.60205C123.127 -1.41793 123.612 -0.176575 124.066 1.07551C124.509 2.33118 124.92 3.60116 125.275 4.8926C125.633 6.18047 125.923 7.48979 126.115 8.82416C126.292 10.155 126.391 11.5287 126.079 12.8952L125.562 12.77C125.845 11.5287 125.732 10.1979 125.576 8.90286C125.406 7.60069 125.119 6.30925 124.796 5.02854C124.474 3.74783 124.094 2.47786 123.683 1.21861C123.272 -0.040633 122.84 -1.29272 122.446 -2.56628L122.507 -2.60205Z" fill="black"/>
</g>
<path opacity="0.45" d="M120.71 3.16538L124.878 4.37455L127.199 0.818604" stroke="black" stroke-width="0.6539" stroke-miterlimit="10"/>
<path opacity="0.45" d="M121.904 6.66993L125.831 8.75198L127.908 6.50537" stroke="black" stroke-width="0.6539" stroke-miterlimit="10"/>
<path d="M143.915 -2.91294C143.915 -2.91294 143.912 -2.90936 143.904 -2.90936C141.696 -1.49629 137.635 7.64039 136.185 7.37924C134.736 7.11452 134.438 6.41692 134.413 7.11809C134.388 7.81926 135.324 8.51328 135.069 9.04989C134.863 9.47918 131.936 11.3967 130.217 13.2319C129.781 13.6934 129.423 14.1513 129.207 14.5806C128.129 16.7055 125.528 13.4823 125.528 13.4823C125.528 13.4823 127.435 5.83738 128.147 5.11832C128.863 4.39926 128.664 6.58506 129.26 6.73889C129.855 6.8963 128.859 4.26333 129.83 3.0327C130.128 2.65707 130.515 2.22063 130.933 1.80565C131.879 0.868372 132.981 0.056301 133.545 0.36038C134.356 0.793246 133.74 1.34417 134.466 1.31555C135.193 1.28693 133.952 0.181511 135.14 -0.938216C136.327 -2.05436 140.644 -3.75005 143.915 -2.91294Z" fill="url(#paint98_linear_126_82)"/>
<g opacity="0.45">
<path opacity="0.45" d="M143.913 -2.91602C142.105 -1.91077 140.365 -0.819659 138.675 0.342996C136.984 1.50565 135.357 2.7649 133.869 4.17797C132.391 5.5982 131.016 7.1329 129.871 8.83574C129.293 9.68359 128.793 10.5815 128.329 11.4973C127.875 12.4203 127.514 13.3862 127.195 14.3664L126.972 14.3056C127.486 12.2772 128.35 10.3383 129.495 8.58175C130.629 6.82167 131.994 5.21899 133.511 3.78803C135.028 2.36065 136.658 1.05132 138.398 -0.0827151C140.131 -1.21317 141.967 -2.20769 143.913 -2.91602Z" fill="black"/>
</g>
<path opacity="0.45" d="M129.663 9.53529C129.915 10.6979 130.255 12.0609 130.216 13.2343C129.78 13.6958 129.422 14.1537 129.206 14.583C128.128 16.708 125.527 13.4847 125.527 13.4847C125.527 13.4847 127.434 5.83984 128.146 5.12078C128.862 4.40172 128.663 6.58751 129.259 6.74134C129.854 6.89875 128.858 4.26578 129.83 3.03515C130.127 2.65953 130.514 2.22308 130.932 1.80811C130.797 2.71677 130.73 3.90804 131.038 4.94549C131.577 6.76281 129.56 6.94168 129.581 8.85559C129.585 9.0595 129.606 9.28487 129.663 9.53529Z" fill="url(#paint99_linear_126_82)"/>
<path d="M131.216 17.3821L126.658 25.0628C126.389 25.5136 125.833 25.7032 125.347 25.5028L119.116 22.9056C118.631 22.7053 118.368 22.1723 118.492 21.6607L118.606 21.2028L120.63 12.9712C120.786 12.3416 121.463 11.9982 122.058 12.245L130.713 15.851C131.202 16.0549 131.45 16.5772 131.34 17.0673C131.319 17.1747 131.273 17.282 131.216 17.3821Z" fill="url(#paint100_linear_126_82)"/>
<path opacity="0.45" d="M131.216 17.383L126.658 25.0637C126.389 25.5144 125.833 25.704 125.347 25.5037L119.116 22.9065C118.631 22.7062 118.368 22.1731 118.492 21.6616L118.606 21.2037C119.499 21.6222 120.573 21.4898 121.218 20.6706C122.423 19.1431 123.515 21.175 124.535 19.2218C125.56 17.2649 126.913 19.5259 128.005 17.7264C129.1 15.927 130.256 17.0396 130.256 17.0396L131.337 17.0682C131.319 17.1755 131.273 17.2828 131.216 17.383Z" fill="url(#paint101_linear_126_82)"/>
<path d="M132.694 15.7759L132.064 17.3177C131.858 17.8186 131.291 18.0547 130.795 17.8508L120.602 13.6044C120.198 13.4362 119.967 13.0248 120.006 12.6099V12.6063C120.013 12.5097 120.035 12.4167 120.074 12.3237L120.704 10.7818C120.91 10.281 121.477 10.0413 121.973 10.2488L132.166 14.4952C132.663 14.7026 132.9 15.275 132.694 15.7759Z" fill="url(#paint102_linear_126_82)"/>
<path opacity="0.45" d="M124.288 11.2111C123.732 11.4758 123.384 11.7763 122.941 11.5545C121.903 11.0322 122.062 12.2486 120.967 12.1269C120.552 12.084 120.24 12.3058 120.014 12.6063C120.021 12.5097 120.042 12.4167 120.081 12.3237L120.712 10.7818C120.917 10.281 121.485 10.0413 121.981 10.2488L124.288 11.2111Z" fill="url(#paint103_linear_126_82)"/>
</g>
<defs>
<linearGradient id="paint0_linear_126_82" x1="90.3217" y1="-1.53751" x2="92.0822" y2="32.6495" gradientUnits="userSpaceOnUse">
<stop stop-color="#2D4D6D"/>
<stop offset="1" stop-color="#4B7999"/>
</linearGradient>
<linearGradient id="paint1_linear_126_82" x1="90.7706" y1="36.1394" x2="91.5335" y2="13.639" gradientUnits="userSpaceOnUse">
<stop/>
<stop offset="1" stop-opacity="0"/>
</linearGradient>
<linearGradient id="paint2_linear_126_82" x1="83.3558" y1="33.016" x2="67.5802" y2="18.1138" gradientUnits="userSpaceOnUse">
<stop stop-color="#FFE5C0"/>
<stop offset="1" stop-color="#FFA992"/>
</linearGradient>
<linearGradient id="paint3_linear_126_82" x1="75.3075" y1="23.2153" x2="76.4957" y2="35.0741" gradientUnits="userSpaceOnUse">
<stop/>
<stop offset="1" stop-opacity="0"/>
</linearGradient>
<linearGradient id="paint4_linear_126_82" x1="75.0067" y1="37.6798" x2="78.2172" y2="22.6912" gradientUnits="userSpaceOnUse">
<stop/>
<stop offset="1" stop-opacity="0"/>
</linearGradient>
<linearGradient id="paint5_linear_126_82" x1="73.3517" y1="37.3252" x2="76.5622" y2="22.3368" gradientUnits="userSpaceOnUse">
<stop/>
<stop offset="1" stop-opacity="0"/>
</linearGradient>
<linearGradient id="paint6_linear_126_82" x1="71.2687" y1="36.8794" x2="74.4792" y2="21.891" gradientUnits="userSpaceOnUse">
<stop/>
<stop offset="1" stop-opacity="0"/>
</linearGradient>
<linearGradient id="paint7_linear_126_82" x1="65.4106" y1="-0.254305" x2="67.1711" y2="33.9305" gradientUnits="userSpaceOnUse">
<stop stop-color="#2D4D6D"/>
<stop offset="1" stop-color="#4B7999"/>
</linearGradient>
<linearGradient id="paint8_linear_126_82" x1="84.9956" y1="32.7516" x2="79.1993" y2="17.5542" gradientUnits="userSpaceOnUse">
<stop stop-color="#FFE5C0"/>
<stop offset="1" stop-color="#FFA992"/>
</linearGradient>
<linearGradient id="paint9_linear_126_82" x1="82.6677" y1="37.6803" x2="79.4573" y2="22.6917" gradientUnits="userSpaceOnUse">
<stop/>
<stop offset="1" stop-opacity="0"/>
</linearGradient>
<linearGradient id="paint10_linear_126_82" x1="84.3239" y1="37.3257" x2="81.1134" y2="22.3373" gradientUnits="userSpaceOnUse">
<stop/>
<stop offset="1" stop-opacity="0"/>
</linearGradient>
<linearGradient id="paint11_linear_126_82" x1="86.4073" y1="36.8799" x2="83.1968" y2="21.8914" gradientUnits="userSpaceOnUse">
<stop/>
<stop offset="1" stop-opacity="0"/>
</linearGradient>
<linearGradient id="paint12_linear_126_82" x1="78.1695" y1="-7.48097" x2="77.8174" y2="10.9209" gradientUnits="userSpaceOnUse">
<stop/>
<stop offset="1" stop-opacity="0"/>
</linearGradient>
<linearGradient id="paint13_linear_126_82" x1="33.6064" y1="6.73785" x2="80.9422" y2="-10.305" gradientUnits="userSpaceOnUse">
<stop stop-color="#FFE5C0"/>
<stop offset="1" stop-color="#FFA992"/>
</linearGradient>
<linearGradient id="paint14_linear_126_82" x1="81.2456" y1="5.36973" x2="131.269" y2="-12.6406" gradientUnits="userSpaceOnUse">
<stop stop-color="#FFE5C0"/>
<stop offset="1" stop-color="#FFA992"/>
</linearGradient>
<linearGradient id="paint15_linear_126_82" x1="79.6742" y1="-22.0468" x2="78.0602" y2="5.63327" gradientUnits="userSpaceOnUse">
<stop stop-color="#84DBC7"/>
<stop offset="1" stop-color="#33C2CF"/>
</linearGradient>
<linearGradient id="paint16_linear_126_82" x1="82.8237" y1="-7.76649" x2="71.3469" y2="22.9214" gradientUnits="userSpaceOnUse">
<stop stop-color="white"/>
<stop offset="1" stop-color="white" stop-opacity="0"/>
</linearGradient>
<linearGradient id="paint17_linear_126_82" x1="84.4696" y1="-7.15093" x2="72.9928" y2="23.5372" gradientUnits="userSpaceOnUse">
<stop stop-color="white"/>
<stop offset="1" stop-color="white" stop-opacity="0"/>
</linearGradient>
<linearGradient id="paint18_linear_126_82" x1="86.115" y1="-6.53529" x2="74.6382" y2="24.1529" gradientUnits="userSpaceOnUse">
<stop stop-color="white"/>
<stop offset="1" stop-color="white" stop-opacity="0"/>
</linearGradient>
<linearGradient id="paint19_linear_126_82" x1="87.7633" y1="-5.91966" x2="76.2865" y2="24.7685" gradientUnits="userSpaceOnUse">
<stop stop-color="white"/>
<stop offset="1" stop-color="white" stop-opacity="0"/>
</linearGradient>
<linearGradient id="paint20_linear_126_82" x1="89.4085" y1="-5.30402" x2="77.9316" y2="25.3841" gradientUnits="userSpaceOnUse">
<stop stop-color="white"/>
<stop offset="1" stop-color="white" stop-opacity="0"/>
</linearGradient>
<linearGradient id="paint21_linear_126_82" x1="91.0543" y1="-4.68839" x2="79.5775" y2="25.9995" gradientUnits="userSpaceOnUse">
<stop stop-color="white"/>
<stop offset="1" stop-color="white" stop-opacity="0"/>
</linearGradient>
<linearGradient id="paint22_linear_126_82" x1="83.3131" y1="-7.58122" x2="71.837" y2="23.1051" gradientUnits="userSpaceOnUse">
<stop stop-color="white"/>
<stop offset="1" stop-color="white" stop-opacity="0"/>
</linearGradient>
<linearGradient id="paint23_linear_126_82" x1="84.959" y1="-6.96566" x2="73.4828" y2="23.7209" gradientUnits="userSpaceOnUse">
<stop stop-color="white"/>
<stop offset="1" stop-color="white" stop-opacity="0"/>
</linearGradient>
<linearGradient id="paint24_linear_126_82" x1="86.6044" y1="-6.35006" x2="75.1283" y2="24.3366" gradientUnits="userSpaceOnUse">
<stop stop-color="white"/>
<stop offset="1" stop-color="white" stop-opacity="0"/>
</linearGradient>
<linearGradient id="paint25_linear_126_82" x1="88.2527" y1="-5.73447" x2="76.7765" y2="24.9522" gradientUnits="userSpaceOnUse">
<stop stop-color="white"/>
<stop offset="1" stop-color="white" stop-opacity="0"/>
</linearGradient>
<linearGradient id="paint26_linear_126_82" x1="89.898" y1="-5.11887" x2="78.4217" y2="25.5677" gradientUnits="userSpaceOnUse">
<stop stop-color="white"/>
<stop offset="1" stop-color="white" stop-opacity="0"/>
</linearGradient>
<linearGradient id="paint27_linear_126_82" x1="91.5438" y1="-4.50324" x2="80.0676" y2="26.1831" gradientUnits="userSpaceOnUse">
<stop stop-color="white"/>
<stop offset="1" stop-color="white" stop-opacity="0"/>
</linearGradient>
<linearGradient id="paint28_linear_126_82" x1="83.8028" y1="-7.39968" x2="72.3261" y2="23.2879" gradientUnits="userSpaceOnUse">
<stop stop-color="white"/>
<stop offset="1" stop-color="white" stop-opacity="0"/>
</linearGradient>
<linearGradient id="paint29_linear_126_82" x1="85.4487" y1="-6.78416" x2="73.972" y2="23.9036" gradientUnits="userSpaceOnUse">
<stop stop-color="white"/>
<stop offset="1" stop-color="white" stop-opacity="0"/>
</linearGradient>
<linearGradient id="paint30_linear_126_82" x1="87.0941" y1="-6.16852" x2="75.6174" y2="24.5193" gradientUnits="userSpaceOnUse">
<stop stop-color="white"/>
<stop offset="1" stop-color="white" stop-opacity="0"/>
</linearGradient>
<linearGradient id="paint31_linear_126_82" x1="88.7424" y1="-5.55289" x2="77.2657" y2="25.1349" gradientUnits="userSpaceOnUse">
<stop stop-color="white"/>
<stop offset="1" stop-color="white" stop-opacity="0"/>
</linearGradient>
<linearGradient id="paint32_linear_126_82" x1="90.3876" y1="-4.93729" x2="78.9109" y2="25.7504" gradientUnits="userSpaceOnUse">
<stop stop-color="white"/>
<stop offset="1" stop-color="white" stop-opacity="0"/>
</linearGradient>
<linearGradient id="paint33_linear_126_82" x1="92.0334" y1="-4.32162" x2="80.5568" y2="26.3659" gradientUnits="userSpaceOnUse">
<stop stop-color="white"/>
<stop offset="1" stop-color="white" stop-opacity="0"/>
</linearGradient>
<linearGradient id="paint34_linear_126_82" x1="84.2922" y1="-7.21641" x2="72.816" y2="23.47" gradientUnits="userSpaceOnUse">
<stop stop-color="white"/>
<stop offset="1" stop-color="white" stop-opacity="0"/>
</linearGradient>
<linearGradient id="paint35_linear_126_82" x1="85.9381" y1="-6.60085" x2="74.4618" y2="24.0859" gradientUnits="userSpaceOnUse">
<stop stop-color="white"/>
<stop offset="1" stop-color="white" stop-opacity="0"/>
</linearGradient>
<linearGradient id="paint36_linear_126_82" x1="87.5835" y1="-5.98532" x2="76.1072" y2="24.7015" gradientUnits="userSpaceOnUse">
<stop stop-color="white"/>
<stop offset="1" stop-color="white" stop-opacity="0"/>
</linearGradient>
<linearGradient id="paint37_linear_126_82" x1="89.2318" y1="-5.36965" x2="77.7555" y2="25.3171" gradientUnits="userSpaceOnUse">
<stop stop-color="white"/>
<stop offset="1" stop-color="white" stop-opacity="0"/>
</linearGradient>
<linearGradient id="paint38_linear_126_82" x1="90.8771" y1="-4.75409" x2="79.4007" y2="25.9326" gradientUnits="userSpaceOnUse">
<stop stop-color="white"/>
<stop offset="1" stop-color="white" stop-opacity="0"/>
</linearGradient>
<linearGradient id="paint39_linear_126_82" x1="92.5229" y1="-4.13842" x2="81.0466" y2="26.548" gradientUnits="userSpaceOnUse">
<stop stop-color="white"/>
<stop offset="1" stop-color="white" stop-opacity="0"/>
</linearGradient>
<linearGradient id="paint40_linear_126_82" x1="84.7819" y1="-7.03253" x2="73.3052" y2="23.6551" gradientUnits="userSpaceOnUse">
<stop stop-color="white"/>
<stop offset="1" stop-color="white" stop-opacity="0"/>
</linearGradient>
<linearGradient id="paint41_linear_126_82" x1="86.4278" y1="-6.41707" x2="74.951" y2="24.2709" gradientUnits="userSpaceOnUse">
<stop stop-color="white"/>
<stop offset="1" stop-color="white" stop-opacity="0"/>
</linearGradient>
<linearGradient id="paint42_linear_126_82" x1="88.0732" y1="-5.8014" x2="76.5965" y2="24.8866" gradientUnits="userSpaceOnUse">
<stop stop-color="white"/>
<stop offset="1" stop-color="white" stop-opacity="0"/>
</linearGradient>
<linearGradient id="paint43_linear_126_82" x1="89.7215" y1="-5.1858" x2="78.2447" y2="25.5021" gradientUnits="userSpaceOnUse">
<stop stop-color="white"/>
<stop offset="1" stop-color="white" stop-opacity="0"/>
</linearGradient>
<linearGradient id="paint44_linear_126_82" x1="91.3668" y1="-4.57023" x2="79.8899" y2="26.1177" gradientUnits="userSpaceOnUse">
<stop stop-color="white"/>
<stop offset="1" stop-color="white" stop-opacity="0"/>
</linearGradient>
<linearGradient id="paint45_linear_126_82" x1="93.0126" y1="-3.95449" x2="81.5358" y2="26.7332" gradientUnits="userSpaceOnUse">
<stop stop-color="white"/>
<stop offset="1" stop-color="white" stop-opacity="0"/>
</linearGradient>
<linearGradient id="paint46_linear_126_82" x1="85.2715" y1="-6.85004" x2="73.7949" y2="23.8374" gradientUnits="userSpaceOnUse">
<stop stop-color="white"/>
<stop offset="1" stop-color="white" stop-opacity="0"/>
</linearGradient>
<linearGradient id="paint47_linear_126_82" x1="86.9174" y1="-6.23459" x2="75.4408" y2="24.4531" gradientUnits="userSpaceOnUse">
<stop stop-color="white"/>
<stop offset="1" stop-color="white" stop-opacity="0"/>
</linearGradient>
<linearGradient id="paint48_linear_126_82" x1="88.5628" y1="-5.61892" x2="77.0862" y2="25.0688" gradientUnits="userSpaceOnUse">
<stop stop-color="white"/>
<stop offset="1" stop-color="white" stop-opacity="0"/>
</linearGradient>
<linearGradient id="paint49_linear_126_82" x1="90.2111" y1="-5.00333" x2="78.7345" y2="25.6843" gradientUnits="userSpaceOnUse">
<stop stop-color="white"/>
<stop offset="1" stop-color="white" stop-opacity="0"/>
</linearGradient>
<linearGradient id="paint50_linear_126_82" x1="91.8563" y1="-4.38766" x2="80.3796" y2="26.3" gradientUnits="userSpaceOnUse">
<stop stop-color="white"/>
<stop offset="1" stop-color="white" stop-opacity="0"/>
</linearGradient>
<linearGradient id="paint51_linear_126_82" x1="93.5021" y1="-3.77203" x2="82.0256" y2="26.9154" gradientUnits="userSpaceOnUse">
<stop stop-color="white"/>
<stop offset="1" stop-color="white" stop-opacity="0"/>
</linearGradient>
<linearGradient id="paint52_linear_126_82" x1="68.9774" y1="-10.3032" x2="57.5007" y2="20.3845" gradientUnits="userSpaceOnUse">
<stop stop-color="white"/>
<stop offset="1" stop-color="white" stop-opacity="0"/>
</linearGradient>
<linearGradient id="paint53_linear_126_82" x1="70.6233" y1="-9.68758" x2="59.1466" y2="21.0001" gradientUnits="userSpaceOnUse">
<stop stop-color="white"/>
<stop offset="1" stop-color="white" stop-opacity="0"/>
</linearGradient>
<linearGradient id="paint54_linear_126_82" x1="72.2681" y1="-9.0719" x2="60.7915" y2="21.6158" gradientUnits="userSpaceOnUse">
<stop stop-color="white"/>
<stop offset="1" stop-color="white" stop-opacity="0"/>
</linearGradient>
<linearGradient id="paint55_linear_126_82" x1="73.9169" y1="-8.45638" x2="62.4401" y2="22.2315" gradientUnits="userSpaceOnUse">
<stop stop-color="white"/>
<stop offset="1" stop-color="white" stop-opacity="0"/>
</linearGradient>
<linearGradient id="paint56_linear_126_82" x1="75.5622" y1="-7.84077" x2="64.0854" y2="22.8472" gradientUnits="userSpaceOnUse">
<stop stop-color="white"/>
<stop offset="1" stop-color="white" stop-opacity="0"/>
</linearGradient>
<linearGradient id="paint57_linear_126_82" x1="77.2081" y1="-7.22514" x2="65.7312" y2="23.4628" gradientUnits="userSpaceOnUse">
<stop stop-color="white"/>
<stop offset="1" stop-color="white" stop-opacity="0"/>
</linearGradient>
<linearGradient id="paint58_linear_126_82" x1="69.467" y1="-10.1203" x2="57.9903" y2="20.5673" gradientUnits="userSpaceOnUse">
<stop stop-color="white"/>
<stop offset="1" stop-color="white" stop-opacity="0"/>
</linearGradient>
<linearGradient id="paint59_linear_126_82" x1="71.1128" y1="-9.50462" x2="59.6362" y2="21.183" gradientUnits="userSpaceOnUse">
<stop stop-color="white"/>
<stop offset="1" stop-color="white" stop-opacity="0"/>
</linearGradient>
<linearGradient id="paint60_linear_126_82" x1="72.7577" y1="-8.88905" x2="61.2811" y2="21.7986" gradientUnits="userSpaceOnUse">
<stop stop-color="white"/>
<stop offset="1" stop-color="white" stop-opacity="0"/>
</linearGradient>
<linearGradient id="paint61_linear_126_82" x1="74.4065" y1="-8.27346" x2="62.9298" y2="22.4143" gradientUnits="userSpaceOnUse">
<stop stop-color="white"/>
<stop offset="1" stop-color="white" stop-opacity="0"/>
</linearGradient>
<linearGradient id="paint62_linear_126_82" x1="76.0518" y1="-7.65786" x2="64.5751" y2="23.03" gradientUnits="userSpaceOnUse">
<stop stop-color="white"/>
<stop offset="1" stop-color="white" stop-opacity="0"/>
</linearGradient>
<linearGradient id="paint63_linear_126_82" x1="77.6976" y1="-7.04222" x2="66.2209" y2="23.6456" gradientUnits="userSpaceOnUse">
<stop stop-color="white"/>
<stop offset="1" stop-color="white" stop-opacity="0"/>
</linearGradient>
<linearGradient id="paint64_linear_126_82" x1="69.9563" y1="-9.93581" x2="58.4799" y2="20.7509" gradientUnits="userSpaceOnUse">
<stop stop-color="white"/>
<stop offset="1" stop-color="white" stop-opacity="0"/>
</linearGradient>
<linearGradient id="paint65_linear_126_82" x1="71.6022" y1="-9.32025" x2="60.1258" y2="21.3665" gradientUnits="userSpaceOnUse">
<stop stop-color="white"/>
<stop offset="1" stop-color="white" stop-opacity="0"/>
</linearGradient>
<linearGradient id="paint66_linear_126_82" x1="73.2471" y1="-8.70461" x2="61.7707" y2="21.9822" gradientUnits="userSpaceOnUse">
<stop stop-color="white"/>
<stop offset="1" stop-color="white" stop-opacity="0"/>
</linearGradient>
<linearGradient id="paint67_linear_126_82" x1="74.8959" y1="-8.08911" x2="63.4194" y2="22.5978" gradientUnits="userSpaceOnUse">
<stop stop-color="white"/>
<stop offset="1" stop-color="white" stop-opacity="0"/>
</linearGradient>
<linearGradient id="paint68_linear_126_82" x1="76.5412" y1="-7.47354" x2="65.0647" y2="23.2134" gradientUnits="userSpaceOnUse">
<stop stop-color="white"/>
<stop offset="1" stop-color="white" stop-opacity="0"/>
</linearGradient>
<linearGradient id="paint69_linear_126_82" x1="78.187" y1="-6.8579" x2="66.7105" y2="23.829" gradientUnits="userSpaceOnUse">
<stop stop-color="white"/>
<stop offset="1" stop-color="white" stop-opacity="0"/>
</linearGradient>
<linearGradient id="paint70_linear_126_82" x1="70.4461" y1="-9.75331" x2="58.9694" y2="20.9343" gradientUnits="userSpaceOnUse">
<stop stop-color="white"/>
<stop offset="1" stop-color="white" stop-opacity="0"/>
</linearGradient>
<linearGradient id="paint71_linear_126_82" x1="72.092" y1="-9.13775" x2="60.6154" y2="21.5499" gradientUnits="userSpaceOnUse">
<stop stop-color="white"/>
<stop offset="1" stop-color="white" stop-opacity="0"/>
</linearGradient>
<linearGradient id="paint72_linear_126_82" x1="73.7369" y1="-8.52208" x2="62.2603" y2="22.1655" gradientUnits="userSpaceOnUse">
<stop stop-color="white"/>
<stop offset="1" stop-color="white" stop-opacity="0"/>
</linearGradient>
<linearGradient id="paint73_linear_126_82" x1="75.3857" y1="-7.90662" x2="63.9089" y2="22.7812" gradientUnits="userSpaceOnUse">
<stop stop-color="white"/>
<stop offset="1" stop-color="white" stop-opacity="0"/>
</linearGradient>
<linearGradient id="paint74_linear_126_82" x1="77.0309" y1="-7.29092" x2="65.5543" y2="23.3969" gradientUnits="userSpaceOnUse">
<stop stop-color="white"/>
<stop offset="1" stop-color="white" stop-opacity="0"/>
</linearGradient>
<linearGradient id="paint75_linear_126_82" x1="78.6768" y1="-6.67536" x2="67.2" y2="24.0124" gradientUnits="userSpaceOnUse">
<stop stop-color="white"/>
<stop offset="1" stop-color="white" stop-opacity="0"/>
</linearGradient>
<linearGradient id="paint76_linear_126_82" x1="86.1602" y1="7.20889" x2="75.0348" y2="-6.29466" gradientUnits="userSpaceOnUse">
<stop/>
<stop offset="1" stop-opacity="0"/>
</linearGradient>
<linearGradient id="paint77_linear_126_82" x1="64.9498" y1="-0.147237" x2="56.7516" y2="-8.32692" gradientUnits="userSpaceOnUse">
<stop/>
<stop offset="1" stop-opacity="0"/>
</linearGradient>
<linearGradient id="paint78_linear_126_82" x1="78.1056" y1="23.9639" x2="78.2817" y2="0.852613" gradientUnits="userSpaceOnUse">
<stop/>
<stop offset="1" stop-opacity="0"/>
</linearGradient>
<linearGradient id="paint79_linear_126_82" x1="71.1825" y1="45.9013" x2="69.422" y2="18.9257" gradientUnits="userSpaceOnUse">
<stop/>
<stop offset="1" stop-opacity="0"/>
</linearGradient>
<linearGradient id="paint80_linear_126_82" x1="87.0665" y1="26.5449" x2="75.0592" y2="17.2926" gradientUnits="userSpaceOnUse">
<stop/>
<stop offset="1" stop-opacity="0"/>
</linearGradient>
<linearGradient id="paint81_linear_126_82" x1="95.7237" y1="5.46994" x2="101.908" y2="-7.26175" gradientUnits="userSpaceOnUse">
<stop/>
<stop offset="1" stop-opacity="0"/>
</linearGradient>
<linearGradient id="paint82_linear_126_82" x1="101.31" y1="-13.3283" x2="90.419" y2="0.0203205" gradientUnits="userSpaceOnUse">
<stop stop-color="white"/>
<stop offset="1" stop-color="white" stop-opacity="0"/>
</linearGradient>
<linearGradient id="paint83_linear_126_82" x1="8.23464" y1="14.9109" x2="29.0238" y2="15.2013" gradientUnits="userSpaceOnUse">
<stop stop-color="#84DBC7"/>
<stop offset="1" stop-color="#33C2CF"/>
</linearGradient>
<linearGradient id="paint84_linear_126_82" x1="9.38413" y1="2.13689" x2="17.0994" y2="17.8446" gradientUnits="userSpaceOnUse">
<stop stop-color="#84DBC7"/>
<stop offset="1" stop-color="#33C2CF"/>
</linearGradient>
<linearGradient id="paint85_linear_126_82" x1="5.59374" y1="3.99752" x2="13.3091" y2="19.7056" gradientUnits="userSpaceOnUse">
<stop stop-color="#84DBC7"/>
<stop offset="1" stop-color="#33C2CF"/>
</linearGradient>
<linearGradient id="paint86_linear_126_82" x1="11.1026" y1="8.85524" x2="22.8747" y2="21.7469" gradientUnits="userSpaceOnUse">
<stop stop-color="#84DBC7"/>
<stop offset="1" stop-color="#33C2CF"/>
</linearGradient>
<linearGradient id="paint87_linear_126_82" x1="7.97666" y1="11.7079" x2="19.7489" y2="24.5998" gradientUnits="userSpaceOnUse">
<stop stop-color="#84DBC7"/>
<stop offset="1" stop-color="#33C2CF"/>
</linearGradient>
<linearGradient id="paint88_linear_126_82" x1="15.1128" y1="15.6399" x2="28.7549" y2="26.4919" gradientUnits="userSpaceOnUse">
<stop stop-color="#84DBC7"/>
<stop offset="1" stop-color="#33C2CF"/>
</linearGradient>
<linearGradient id="paint89_linear_126_82" x1="12.4743" y1="18.9557" x2="26.117" y2="29.8082" gradientUnits="userSpaceOnUse">
<stop stop-color="#84DBC7"/>
<stop offset="1" stop-color="#33C2CF"/>
</linearGradient>
<linearGradient id="paint90_linear_126_82" x1="17.8608" y1="20.354" x2="34.679" y2="24.7342" gradientUnits="userSpaceOnUse">
<stop stop-color="#84DBC7"/>
<stop offset="1" stop-color="#33C2CF"/>
</linearGradient>
<linearGradient id="paint91_linear_126_82" x1="16.789" y1="24.4685" x2="33.6078" y2="28.8488" gradientUnits="userSpaceOnUse">
<stop stop-color="#84DBC7"/>
<stop offset="1" stop-color="#33C2CF"/>
</linearGradient>
<linearGradient id="paint92_linear_126_82" x1="11.3076" y1="-3.53535" x2="10.2815" y2="13.9663" gradientUnits="userSpaceOnUse">
<stop stop-color="#84DBC7"/>
<stop offset="1" stop-color="#33C2CF"/>
</linearGradient>
<linearGradient id="paint93_linear_126_82" x1="7.09561" y1="-3.78093" x2="6.06957" y2="13.72" gradientUnits="userSpaceOnUse">
<stop stop-color="#84DBC7"/>
<stop offset="1" stop-color="#33C2CF"/>
</linearGradient>
<linearGradient id="paint94_linear_126_82" x1="39.8267" y1="44.7779" x2="18.3549" y2="11.1643" gradientUnits="userSpaceOnUse">
<stop stop-color="#2D4D6D"/>
<stop offset="1" stop-color="#4B7999"/>
</linearGradient>
<linearGradient id="paint95_linear_126_82" x1="38.9824" y1="3.79434" x2="21.678" y2="42.7517" gradientUnits="userSpaceOnUse">
<stop stop-color="#84DBC7"/>
<stop offset="1" stop-color="#33C2CF"/>
</linearGradient>
<linearGradient id="paint96_linear_126_82" x1="34.0862" y1="22.2775" x2="10.3767" y2="50.0981" gradientUnits="userSpaceOnUse">
<stop/>
<stop offset="1" stop-opacity="0"/>
</linearGradient>
<linearGradient id="paint97_linear_126_82" x1="123.889" y1="-1.75963" x2="124.245" y2="13.9912" gradientUnits="userSpaceOnUse">
<stop stop-color="#84DBC7"/>
<stop offset="1" stop-color="#33C2CF"/>
</linearGradient>
<linearGradient id="paint98_linear_126_82" x1="137.88" y1="-7.82057" x2="131.453" y2="18.3566" gradientUnits="userSpaceOnUse">
<stop stop-color="#F4F9F4"/>
<stop offset="1" stop-color="#DDEAC4"/>
</linearGradient>
<linearGradient id="paint99_linear_126_82" x1="136.323" y1="5.31275" x2="113.326" y2="16.3386" gradientUnits="userSpaceOnUse">
<stop/>
<stop offset="1" stop-opacity="0"/>
</linearGradient>
<linearGradient id="paint100_linear_126_82" x1="120.596" y1="27.4257" x2="126.74" y2="13.5494" gradientUnits="userSpaceOnUse">
<stop stop-color="#2D4D6D"/>
<stop offset="1" stop-color="#4B7999"/>
</linearGradient>
<linearGradient id="paint101_linear_126_82" x1="128.656" y1="39.9776" x2="123.466" y2="12.2526" gradientUnits="userSpaceOnUse">
<stop/>
<stop offset="1" stop-opacity="0"/>
</linearGradient>
<linearGradient id="paint102_linear_126_82" x1="129.846" y1="31.005" x2="122.76" y2="-3.08064" gradientUnits="userSpaceOnUse">
<stop stop-color="#2D4D6D"/>
<stop offset="1" stop-color="#4B7999"/>
</linearGradient>
<linearGradient id="paint103_linear_126_82" x1="117.348" y1="2.84694" x2="124.255" y2="15.643" gradientUnits="userSpaceOnUse">
<stop stop-color="white"/>
<stop offset="1" stop-color="white" stop-opacity="0"/>
</linearGradient>
</defs>
</svg>
